<svg xmlns="http://www.w3.org/2000/svg" width="120" height="50.128" viewBox="0 0 120 50.128">
  <g id="그룹_2884" data-name="그룹 2884" transform="translate(-163 -1103)">
    <g id="icon_01" transform="translate(163 1103)">
      <rect id="사각형_2242" data-name="사각형 2242" width="50" height="50" transform="translate(0 0)" fill="red" opacity="0"/>
      <g id="그룹_1663" data-name="그룹 1663" transform="translate(31.789 16.422)">
        <circle id="타원_115" data-name="타원 115" cx="9.106" cy="9.106" r="9.106" transform="translate(0 0)" fill="#ffd800"/>
      </g>
      <g id="그룹_1665" data-name="그룹 1665" transform="translate(3.935 5.533)">
        <circle id="타원_117" data-name="타원 117" cx="13.008" cy="13.008" r="13.008" fill="#ffb236"/>
      </g>
      <g id="그룹_1666" data-name="그룹 1666" transform="translate(21.628 23.495)">
        <path id="패스_621" data-name="패스 621" d="M166.629,239.547h-3.9a9.105,9.105,0,0,0,9.105,9.106h3.9A9.105,9.105,0,0,0,166.629,239.547Z" transform="translate(-162.727 -239.547)" fill="#fff"/>
      </g>
      <g id="그룹_1667" data-name="그룹 1667" transform="translate(21.628 23.495)">
        <path id="패스_622" data-name="패스 622" d="M175.735,248.653h-3.9a9.105,9.105,0,0,1-9.105-9.106h0A34.107,34.107,0,0,1,175.735,248.653Z" transform="translate(-162.727 -239.547)" fill="#e4f0fe"/>
      </g>
      <g id="그룹_1668" data-name="그룹 1668" transform="translate(21.14 23.007)">
        <path id="패스_623" data-name="패스 623" d="M175.473,248.878h-3.9a9.6,9.6,0,0,1-9.593-9.593.488.488,0,0,1,.488-.488h3.9a9.6,9.6,0,0,1,9.593,9.593A.488.488,0,0,1,175.473,248.878Zm-12.506-9.105a8.628,8.628,0,0,0,8.6,8.13h3.4a8.628,8.628,0,0,0-8.6-8.13Z" transform="translate(-161.977 -238.797)" fill="#444"/>
      </g>
      <g id="그룹_1669" data-name="그룹 1669" transform="translate(25.822 25.233)">
        <path id="패스_624" data-name="패스 624" d="M177.99,250.075a.488.488,0,0,1-.375-.176,35.217,35.217,0,0,0-8.2-6.772.488.488,0,0,1,.5-.84,35.54,35.54,0,0,1,8.452,6.987.489.489,0,0,1-.374.8Z" transform="translate(-169.176 -242.22)" fill="#444"/>
      </g>
      <g id="그룹_1724" data-name="그룹 1724" transform="translate(11.875 17.644)">
        <g id="그룹_1693" data-name="그룹 1693" transform="translate(0)">
          <circle id="타원_121" data-name="타원 121" cx="7.154" cy="7.154" r="7.154" fill="#fff"/>
        </g>
        <g id="그룹_1723" data-name="그룹 1723" transform="translate(1.797 1.797)">
          <circle id="타원_121-2" data-name="타원 121" cx="5.357" cy="5.357" r="5.357" transform="translate(0)" fill="#ffd2b1"/>
        </g>
      </g>
      <g id="그룹_1670" data-name="그룹 1670" transform="translate(34.637 27.397)">
        <path id="패스_625" data-name="패스 625" d="M191.835,245.547h3.9a9.105,9.105,0,0,1-9.105,9.106h-3.9A9.106,9.106,0,0,1,191.835,245.547Z" transform="translate(-182.729 -245.547)" fill="#fff"/>
      </g>
      <g id="그룹_1671" data-name="그룹 1671" transform="translate(34.637 27.397)">
        <path id="패스_626" data-name="패스 626" d="M182.729,254.652h3.9a9.105,9.105,0,0,0,9.105-9.106h0A34.107,34.107,0,0,0,182.729,254.652Z" transform="translate(-182.729 -245.547)" fill="#ffd2b1"/>
      </g>
      <g id="그룹_1672" data-name="그룹 1672" transform="translate(34.149 26.91)">
        <path id="패스_627" data-name="패스 627" d="M186.369,254.878h-3.9a.488.488,0,0,1-.488-.488,9.6,9.6,0,0,1,9.593-9.593h3.9a.488.488,0,0,1,.488.488A9.6,9.6,0,0,1,186.369,254.878Zm-3.4-.976h3.4a8.629,8.629,0,0,0,8.6-8.13h-3.4A8.629,8.629,0,0,0,182.968,253.9Z" transform="translate(-181.979 -244.797)" fill="#444"/>
      </g>
      <g id="그룹_1673" data-name="그룹 1673" transform="translate(34.149 29.136)">
        <path id="패스_628" data-name="패스 628" d="M182.467,256.075a.488.488,0,0,1-.374-.8,35.577,35.577,0,0,1,8.451-6.987.488.488,0,1,1,.5.84,35.252,35.252,0,0,0-8.2,6.772A.486.486,0,0,1,182.467,256.075Z" transform="translate(-181.979 -248.22)" fill="#444"/>
      </g>
      <g id="그룹_1674" data-name="그룹 1674" transform="translate(19.026 37.155)">
        <path id="패스_629" data-name="패스 629" d="M167.833,260.549h3.9a9.106,9.106,0,0,1-9.106,9.106h-3.9A9.105,9.105,0,0,1,167.833,260.549Z" transform="translate(-158.727 -260.549)" fill="#fff"/>
      </g>
      <g id="그룹_1675" data-name="그룹 1675" transform="translate(19.026 37.155)">
        <path id="패스_630" data-name="패스 630" d="M158.727,269.655h3.9a9.106,9.106,0,0,0,9.106-9.106h0A34.1,34.1,0,0,0,158.727,269.655Z" transform="translate(-158.727 -260.549)" fill="#ffd2b1"/>
      </g>
      <g id="그룹_1676" data-name="그룹 1676" transform="translate(18.538 36.667)">
        <path id="패스_631" data-name="패스 631" d="M162.367,269.88h-3.9a.488.488,0,0,1-.488-.488,9.6,9.6,0,0,1,9.593-9.593h3.9a.488.488,0,0,1,.488.488A9.6,9.6,0,0,1,162.367,269.88Zm-3.4-.976h3.4a8.629,8.629,0,0,0,8.6-8.13h-3.4A8.628,8.628,0,0,0,158.966,268.9Z" transform="translate(-157.977 -259.799)" fill="#444"/>
      </g>
      <g id="그룹_1677" data-name="그룹 1677" transform="translate(18.538 38.893)">
        <path id="패스_632" data-name="패스 632" d="M158.464,271.077a.489.489,0,0,1-.374-.8,35.522,35.522,0,0,1,8.452-6.987.488.488,0,0,1,.5.84,35.251,35.251,0,0,0-8.2,6.772A.486.486,0,0,1,158.464,271.077Z" transform="translate(-157.976 -263.222)" fill="#444"/>
      </g>
      <g id="그룹_1678" data-name="그룹 1678" transform="translate(6.017 33.252)">
        <path id="패스_633" data-name="패스 633" d="M142.627,254.549h-3.9a9.106,9.106,0,0,0,9.106,9.106h3.9A9.105,9.105,0,0,0,142.627,254.549Z" transform="translate(-138.725 -254.549)" fill="#fff"/>
      </g>
      <g id="그룹_1679" data-name="그룹 1679" transform="translate(6.017 33.252)">
        <path id="패스_634" data-name="패스 634" d="M151.733,263.655h-3.9a9.106,9.106,0,0,1-9.106-9.106h0A34.092,34.092,0,0,1,151.733,263.655Z" transform="translate(-138.725 -254.549)" fill="#e7e7e7"/>
      </g>
      <g id="그룹_1680" data-name="그룹 1680" transform="translate(5.529 32.764)">
        <path id="패스_635" data-name="패스 635" d="M151.471,263.88h-3.9a9.6,9.6,0,0,1-9.593-9.593.488.488,0,0,1,.488-.488h3.9a9.6,9.6,0,0,1,9.593,9.593A.488.488,0,0,1,151.471,263.88Zm-12.506-9.106a8.628,8.628,0,0,0,8.6,8.13h3.4a8.629,8.629,0,0,0-8.6-8.13Z" transform="translate(-137.975 -253.799)" fill="#444"/>
      </g>
      <g id="그룹_1681" data-name="그룹 1681" transform="translate(10.211 34.991)">
        <path id="패스_636" data-name="패스 636" d="M153.987,265.077a.486.486,0,0,1-.375-.176,35.252,35.252,0,0,0-8.2-6.772.488.488,0,1,1,.5-.84,35.508,35.508,0,0,1,8.451,6.987.488.488,0,0,1-.374.8Z" transform="translate(-145.174 -257.222)" fill="#444"/>
      </g>
      <g id="그룹_1682" data-name="그룹 1682" transform="translate(11.389 49.024)">
        <path id="패스_637" data-name="패스 637" d="M160.48,279.775H147.473a.488.488,0,0,1,0-.976H160.48a.488.488,0,0,1,0,.976Z" transform="translate(-146.985 -278.799)" fill="#444"/>
      </g>
      <g id="그룹_1683" data-name="그룹 1683" transform="translate(26.999 49.024)">
        <path id="패스_638" data-name="패스 638" d="M181.229,279.775h-9.757a.488.488,0,0,1,0-.976h9.757a.488.488,0,0,1,0,.976Z" transform="translate(-170.985 -278.799)" fill="#444"/>
      </g>
      <g id="그룹_1684" data-name="그룹 1684" transform="translate(39.357 49.024)">
        <path id="패스_639" data-name="패스 639" d="M192.424,279.775h-1.951a.488.488,0,0,1,0-.976h1.951a.488.488,0,0,1,0,.976Z" transform="translate(-189.986 -278.799)" fill="#444"/>
      </g>
      <g id="그룹_1720" data-name="그룹 1720" transform="translate(27.486 7.887)">
        <path id="패스_661" data-name="패스 661" d="M7.154,0A7.154,7.154,0,1,1,0,7.154,7.154,7.154,0,0,1,7.154,0Z" transform="translate(0 0)" fill="#fff"/>
        <circle id="타원_118" data-name="타원 118" cx="5.315" cy="5.315" r="5.315" transform="translate(1.839 1.839)" fill="#e57828"/>
      </g>
      <g id="그룹_1687" data-name="그룹 1687" transform="translate(26.999 7.399)">
        <path id="패스_641" data-name="패스 641" d="M178.627,230.083a7.642,7.642,0,1,1,7.642-7.642A7.651,7.651,0,0,1,178.627,230.083Zm0-14.309a6.667,6.667,0,1,0,6.667,6.667A6.674,6.674,0,0,0,178.627,215.775Z" transform="translate(-170.985 -214.799)" fill="#444"/>
      </g>
      <g id="그룹_1721" data-name="그룹 1721" transform="translate(32.945 11.543)">
        <path id="패스_4434" data-name="패스 4434" d="M-.234,1.564.98,6.383l1.133-4.6,1.231,4.6L4.439,1.564" fill="none" stroke="#fff" stroke-linecap="round" stroke-linejoin="round" stroke-width="0.5"/>
        <line id="선_677" data-name="선 677" x2="7" transform="translate(-1.445 3.657)" fill="none" stroke="#fff" stroke-linecap="round" stroke-width="0.5"/>
      </g>
      <g id="그룹_1695" data-name="그룹 1695" transform="translate(11.387 17.156)">
        <path id="패스_646" data-name="패스 646" d="M154.624,245.085a7.642,7.642,0,1,1,7.642-7.642A7.651,7.651,0,0,1,154.624,245.085Zm0-14.309a6.667,6.667,0,1,0,6.667,6.667A6.674,6.674,0,0,0,154.624,230.777Z" transform="translate(-146.982 -229.801)" fill="#444"/>
      </g>
      <g id="그룹_1701" data-name="그룹 1701" transform="translate(34.153 21.708)">
        <path id="패스_652" data-name="패스 652" d="M182.473,265.091a.488.488,0,0,1-.488-.488V237.287a.488.488,0,1,1,.976,0V264.6A.488.488,0,0,1,182.473,265.091Z" transform="translate(-181.985 -236.799)" fill="#444"/>
      </g>
      <g id="그룹_1702" data-name="그룹 1702" transform="translate(18.541 31.465)">
        <path id="패스_653" data-name="패스 653" d="M158.47,270.336a.488.488,0,0,1-.488-.488V252.289a.488.488,0,1,1,.976,0v17.559A.488.488,0,0,1,158.47,270.336Z" transform="translate(-157.982 -251.801)" fill="#444"/>
      </g>
      <g id="그룹_1703" data-name="그룹 1703" transform="translate(20.981 11.799)">
        <circle id="타원_122" data-name="타원 122" cx="1.301" cy="1.301" r="1.301" transform="translate(0)" fill="#fff"/>
      </g>
      <g id="그룹_1704" data-name="그룹 1704" transform="translate(20.493 11.311)">
        <path id="패스_654" data-name="패스 654" d="M162.772,224.391a1.789,1.789,0,1,1,1.789-1.789A1.79,1.79,0,0,1,162.772,224.391Zm0-2.6a.813.813,0,1,0,.813.813A.814.814,0,0,0,162.772,221.79Z" transform="translate(-160.983 -220.814)" fill="#444"/>
      </g>
      <g id="그룹_1705" data-name="그룹 1705" transform="translate(41.795 21.555)">
        <circle id="타원_123" data-name="타원 123" cx="1.301" cy="1.301" r="1.301" transform="translate(0 0)" fill="#fff"/>
      </g>
      <g id="그룹_1706" data-name="그룹 1706" transform="translate(41.308 21.067)">
        <path id="패스_655" data-name="패스 655" d="M194.775,239.391a1.789,1.789,0,1,1,1.789-1.789A1.79,1.79,0,0,1,194.775,239.391Zm0-2.6a.813.813,0,1,0,.813.813A.814.814,0,0,0,194.775,236.79Z" transform="translate(-192.986 -235.814)" fill="#444"/>
      </g>
      <g id="그룹_1707" data-name="그룹 1707" transform="translate(38.543 39.769)">
        <circle id="타원_124" data-name="타원 124" cx="1.301" cy="1.301" r="1.301" fill="#c6d1ff"/>
      </g>
      <g id="그룹_1709" data-name="그룹 1709" transform="translate(43.747 43.671)">
        <circle id="타원_125" data-name="타원 125" cx="1.301" cy="1.301" r="1.301" transform="translate(0 0)" fill="#fff"/>
      </g>
      <g id="그룹_1710" data-name="그룹 1710" transform="translate(43.259 43.183)">
        <path id="패스_657" data-name="패스 657" d="M197.775,273.4a1.789,1.789,0,1,1,1.789-1.789A1.79,1.79,0,0,1,197.775,273.4Zm0-2.6a.813.813,0,1,0,.813.813A.814.814,0,0,0,197.775,270.794Z" transform="translate(-195.986 -269.818)" fill="#444"/>
      </g>
      <g id="그룹_1711" data-name="그룹 1711" transform="translate(13.175 9.197)">
        <circle id="타원_126" data-name="타원 126" cx="1.301" cy="1.301" r="1.301" transform="translate(0 0)" fill="#fff"/>
      </g>
      <g id="그룹_1712" data-name="그룹 1712" transform="translate(12.687 8.709)">
        <path id="패스_658" data-name="패스 658" d="M150.77,220.39a1.789,1.789,0,1,1,1.789-1.789A1.79,1.79,0,0,1,150.77,220.39Zm0-2.6a.813.813,0,1,0,.813.813A.814.814,0,0,0,150.77,217.789Z" transform="translate(-148.981 -216.813)" fill="#444"/>
      </g>
      <g id="그룹_1713" data-name="그룹 1713" transform="translate(7.972 16.352)">
        <circle id="타원_127" data-name="타원 127" cx="1.301" cy="1.301" r="1.301" transform="translate(0)" fill="#fff"/>
      </g>
      <g id="그룹_1714" data-name="그룹 1714" transform="translate(7.484 15.864)">
        <path id="패스_659" data-name="패스 659" d="M142.77,231.391a1.789,1.789,0,1,1,1.789-1.789A1.79,1.79,0,0,1,142.77,231.391Zm0-2.6a.813.813,0,1,0,.813.813A.814.814,0,0,0,142.77,228.79Z" transform="translate(-140.981 -227.814)" fill="#444"/>
      </g>
      <g id="그룹_2843" data-name="그룹 2843" transform="translate(16.97 21.119)">
        <path id="패스_4434-2" data-name="패스 4434" d="M-.234,1.564.98,6.383l1.133-4.6,1.231,4.6L4.439,1.564" fill="none" stroke="#e57828" stroke-linecap="round" stroke-linejoin="round" stroke-width="0.5"/>
        <path id="패스_4435" data-name="패스 4435" d="M0,0H7" transform="translate(-1.445 3.657)" fill="none" stroke="#e57828" stroke-linecap="round" stroke-width="0.5"/>
      </g>
    </g>
    <g id="icon_03" transform="translate(233 1103)">
      <rect id="사각형_2242-2" data-name="사각형 2242" width="50" height="50" transform="translate(0 0)" fill="red" opacity="0"/>
      <g id="그룹_1665-2" data-name="그룹 1665" transform="translate(3.935 5.533)">
        <circle id="타원_117-2" data-name="타원 117" cx="13.008" cy="13.008" r="13.008" fill="#ffb236"/>
      </g>
      <g id="그룹_2841" data-name="그룹 2841" transform="translate(0 30.313)">
        <circle id="타원_117-3" data-name="타원 117" cx="4.735" cy="4.735" r="4.735" fill="#c6d1ff"/>
      </g>
      <g id="그룹_1684-2" data-name="그룹 1684" transform="translate(10.176 13.65)">
        <path id="패스_639-2" data-name="패스 639" d="M193.9,280.364h-3.129a.782.782,0,0,1,0-1.565H193.9a.782.782,0,0,1,0,1.565Z" transform="translate(-189.986 -278.799)" fill="#444"/>
      </g>
      <g id="그룹_2799" data-name="그룹 2799" transform="translate(10.176 36.582)">
        <g id="그룹_1703-2" data-name="그룹 1703" transform="translate(0.488 0.488)">
          <circle id="타원_122-2" data-name="타원 122" cx="1.301" cy="1.301" r="1.301" transform="translate(0)" fill="#fff"/>
        </g>
        <g id="그룹_1704-2" data-name="그룹 1704">
          <path id="패스_654-2" data-name="패스 654" d="M162.772,224.391a1.789,1.789,0,1,1,1.789-1.789A1.79,1.79,0,0,1,162.772,224.391Zm0-2.6a.813.813,0,1,0,.813.813A.814.814,0,0,0,162.772,221.79Z" transform="translate(-160.983 -220.814)" fill="#444"/>
        </g>
      </g>
      <g id="그룹_1709-2" data-name="그룹 1709" transform="translate(43.747 43.671)">
        <circle id="타원_125-2" data-name="타원 125" cx="1.301" cy="1.301" r="1.301" transform="translate(0 0)" fill="#fff"/>
      </g>
      <g id="그룹_1710-2" data-name="그룹 1710" transform="translate(43.259 43.183)">
        <path id="패스_657-2" data-name="패스 657" d="M197.775,273.4a1.789,1.789,0,1,1,1.789-1.789A1.79,1.79,0,0,1,197.775,273.4Zm0-2.6a.813.813,0,1,0,.813.813A.814.814,0,0,0,197.775,270.794Z" transform="translate(-195.986 -269.818)" fill="#444"/>
      </g>
      <g id="그룹_1711-2" data-name="그룹 1711" transform="translate(7.583 13.65)">
        <circle id="타원_126-2" data-name="타원 126" cx="0.843" cy="0.843" r="0.843" transform="translate(0 0)" fill="#444"/>
      </g>
      <g id="그룹_2795" data-name="그룹 2795" transform="translate(15.777 10.497)">
        <rect id="사각형_3043" data-name="사각형 3043" width="31" height="25.5" rx="1.5" transform="translate(2.773 5.503)" fill="#fff"/>
        <path id="패스_4403" data-name="패스 4403" d="M417.287,300.825H407.11a3.856,3.856,0,0,0-7.554,0H389.379A2.076,2.076,0,0,0,387.3,302.9v22.027A2.076,2.076,0,0,0,389.379,327h9.668l-3.14,9.355a.775.775,0,0,0,.487.981.787.787,0,0,0,.246.04.773.773,0,0,0,.734-.528L400.68,327h5.306l3.3,9.848a.774.774,0,0,0,.734.528.784.784,0,0,0,.247-.04.774.774,0,0,0,.487-.981L407.618,327h9.668a2.076,2.076,0,0,0,2.074-2.074V302.9a2.076,2.076,0,0,0-2.074-2.074Zm-13.954-1.533a2.312,2.312,0,0,1,2.174,1.533h-4.347a2.31,2.31,0,0,1,2.174-1.533Zm14.479,25.633a.526.526,0,0,1-.525.525h-2.022V314.416a.774.774,0,1,0-1.548,0v11.035h-2.381v-8.667a.774.774,0,0,0-1.548,0v8.667h-2.174v-6.134a.774.774,0,1,0-1.548,0v6.134h-1.959v-8.1a.774.774,0,0,0-1.548,0v8.1h-2.247v-4.26a.774.774,0,0,0-1.548,0v4.26h-1.8V321.5a.774.774,0,0,0-1.548,0v3.947h-2.073v-3.045a.774.774,0,0,0-1.548,0v3.045h-2.418a.526.526,0,0,1-.525-.525V302.9a.526.526,0,0,1,.525-.525h27.908a.526.526,0,0,1,.525.525Zm0,0" transform="translate(-387.305 -297.744)" fill="#444"/>
        <path id="패스_4404" data-name="패스 4404" d="M417,308.81c0-.01,0-.02,0-.031l-.007-.043-.009-.037-.01-.037c0-.012-.008-.023-.012-.034s-.009-.025-.014-.037l-.015-.031c-.006-.012-.011-.025-.018-.037l-.018-.029c-.007-.012-.014-.024-.022-.036s-.015-.02-.022-.031l-.023-.031c-.014-.017-.029-.032-.044-.048l-.007-.008-.007-.007a.573.573,0,0,0-.05-.045l-.029-.021c-.01-.008-.02-.017-.031-.024l-.034-.02-.031-.018a.354.354,0,0,0-.034-.016l-.034-.017-.033-.012-.039-.014-.032-.008-.042-.01-.036-.005-.039-.006-.063,0h-3.357a.774.774,0,0,0,0,1.548h1.475l-6.427,6.427-1.687-1.688a.775.775,0,0,0-1.1,0l-5.586,5.586-1.667-1.667a.775.775,0,0,0-1.094,0l-2.825,2.825a.774.774,0,1,0,1.094,1.095l2.277-2.277,1.667,1.667a.775.775,0,0,0,1.094,0l5.586-5.586,1.687,1.687a.774.774,0,0,0,1.094,0l6.974-6.974v1.474a.774.774,0,1,0,1.548,0v-3.343c0-.026,0-.052,0-.077Zm0,0" transform="translate(-389.041 -300.537)" fill="#e57828"/>
        <path id="패스_4405" data-name="패스 4405" d="M395.3,308.887a.774.774,0,1,1-.774-.774.774.774,0,0,1,.774.774Zm0,0" transform="translate(-389.041 -300.537)" fill="#ffb236"/>
        <path id="패스_4406" data-name="패스 4406" d="M395.3,313.205a.774.774,0,1,1-.774-.774.774.774,0,0,1,.774.774Zm0,0" transform="translate(-389.041 -301.7)" fill="#ffb236"/>
        <path id="패스_4407" data-name="패스 4407" d="M395.3,317.525a.774.774,0,1,1-.774-.774.775.775,0,0,1,.774.774Zm0,0" transform="translate(-389.041 -302.864)" fill="#ffb236"/>
      </g>
    </g>
  </g>
</svg>
