<svg id="소비자독점" xmlns="http://www.w3.org/2000/svg" width="60" height="60" viewBox="0 0 60 60">
  <rect id="사각형_2817" data-name="사각형 2817" width="60" height="60" fill="#e57828" opacity="0"/>
  <path id="패스_680" data-name="패스 680" d="M187.763,49.85a1.341,1.341,0,1,0,.39.948,1.341,1.341,0,0,0-.39-.948m-33.434-.027a1.335,1.335,0,0,0-1.9,0,1.337,1.337,0,0,0,1.834,1.946h0l.015-.012,0-.008h0l.012-.012v0l.008-.008h0l0,0,.008-.008.008-.008v0l.008,0a1.341,1.341,0,0,0-.015-1.876Zm25.515,16.993a77.9,77.9,0,0,0-19.043,0c-2.2.325-3.567.669-3.567.951s1.365.627,3.567.952a68.609,68.609,0,0,0,9.524.584,68.623,68.623,0,0,0,9.52-.584c2.2-.325,3.567-.669,3.567-.952S182.045,67.141,179.844,66.816Zm-9.705-20.39.155.012.2-.016h.008l0,0,.162-.035a1.34,1.34,0,0,0-.371-2.626,1.338,1.338,0,0,0-.925.371l-.019.023a1.325,1.325,0,0,0-.395.944,1.34,1.34,0,0,0,.391.948,1.362,1.362,0,0,0,.631.356l.015,0,.015,0,.066.012.015,0Zm10.085-.317a.476.476,0,1,1,0,.952H178.63a.476.476,0,0,1,0-.952Zm-19.836.952a.476.476,0,0,1,0-.952h1.594a.476.476,0,1,1,0,.952Zm-8.8,0a.476.476,0,0,1,0-.952h3.006a.476.476,0,0,1,0,.952Zm18.243-20.583a.476.476,0,0,1,.952,0v4.63a.476.476,0,1,1-.952,0v-4.63Zm18.784,9.636a.475.475,0,1,1,.453.835L184.8,39.262a.475.475,0,1,1-.453-.836Zm-37.069.835a.475.475,0,0,1,.453-.835l4.267,2.313a.475.475,0,1,1-.453.836ZM179.26,31.1a.48.48,0,0,1,.654-.155.473.473,0,0,1,.155.654l-1.5,2.449a.477.477,0,0,1-.812-.5Zm-18.718.5a.473.473,0,0,1,.155-.654.479.479,0,0,1,.654.155l1.5,2.449a.475.475,0,0,1-.808.5Zm9.288,3.644a.476.476,0,1,1,.952,0v2.611a.476.476,0,0,1-.952,0V35.247ZM179.887,40.5a.474.474,0,1,1,.476.82L178.1,42.631a.474.474,0,1,1-.476-.82Zm-19.639.82a.474.474,0,0,1,.476-.82l2.263,1.307a.474.474,0,0,1-.476.82Zm14.606-3.567a.478.478,0,0,1,.646-.174.471.471,0,0,1,.174.646l-.8,1.381a.469.469,0,0,1-.646.174.476.476,0,0,1-.174-.646Zm-9.918.472a.473.473,0,1,1,.82-.472l.8,1.381a.473.473,0,0,1-.82.472Zm24.087,7.879a.476.476,0,1,1,0,.952h-3.005a.476.476,0,1,1,0-.952ZM170.6,47.366h-.012l0,0h-.027l0,0h-.031l0,0h-.039l-.008,0h-.05l0,0h-.127c-.085,0-.17,0-.252-.012l-6.011,9.775-8.978-4.816-.054.054a2.17,2.17,0,0,1-.166.155l2.259,14.293.035-.019h0l.035-.019.027-.012.008,0,.038-.019.019-.008c3.122-1.474,12.138-1.474,13.067-1.474,1.218,0,9.69,0,12.966,1.427l.031.015.008,0,.038.015.019.012.019.008.039.019.008,0,.027.012.035.019h0l.035.019,2.212-14a2.094,2.094,0,0,1-.484-.336l-8.665,4.653Z" transform="translate(-140.482 -17.431)" fill="#e57828" fill-rule="evenodd"/>
</svg>
