<svg id="이익성장주" xmlns="http://www.w3.org/2000/svg" width="60" height="60" viewBox="0 0 60 60">
  <rect id="사각형_2816" data-name="사각형 2816" width="60" height="60" fill="#e57828" opacity="0"/>
  <path id="패스_681" data-name="패스 681" d="M33.032,329.2c-4.236,0-7.432,1.565-7.432,3.645V338.6c0,2.08,3.2,3.645,7.432,3.645s7.432-1.565,7.432-3.645v-5.757C40.463,330.776,37.267,329.2,33.032,329.2Zm-5.9,5.462a10.675,10.675,0,0,0,5.9,1.456,10.675,10.675,0,0,0,5.9-1.456v1.883c-.843.9-3.032,1.686-5.9,1.686s-5.046-.788-5.9-1.686Zm5.9-3.929c3.6,0,5.9,1.248,5.9,2.112v.81c-.843.9-3.032,1.686-5.9,1.686s-5.046-.788-5.9-1.686v-.81C27.132,331.991,29.431,330.732,33.032,330.732Zm0,9.993c-3.6,0-5.9-1.248-5.9-2.112V337.54a10.676,10.676,0,0,0,5.9,1.456,10.676,10.676,0,0,0,5.9-1.456v1.073C38.931,339.466,36.633,340.725,33.032,340.725Z" transform="translate(-20.457 -290.047)" fill="#e57828"/>
  <path id="패스_682" data-name="패스 682" d="M195.532,276.6c-4.236,0-7.432,1.565-7.432,3.645v11.514c0,2.08,3.2,3.645,7.432,3.645s7.432-1.565,7.432-3.645V280.245C202.963,278.165,199.767,276.6,195.532,276.6Zm5.9,10.212c-.843.9-3.032,1.686-5.9,1.686s-5.046-.788-5.9-1.686v-1.883a12.682,12.682,0,0,0,11.8,0Zm0-2.879c-.843.9-3.032,1.686-5.9,1.686s-5.046-.788-5.9-1.686v-1.883a12.682,12.682,0,0,0,11.8,0Zm-11.8,3.885a12.682,12.682,0,0,0,11.8,0V289.7c-.843.9-3.032,1.686-5.9,1.686s-5.046-.788-5.9-1.686Zm5.9-9.686c3.6,0,5.9,1.248,5.9,2.112v.81c-.843.9-3.032,1.686-5.9,1.686s-5.046-.788-5.9-1.686v-.81C189.632,279.391,191.931,278.132,195.532,278.132Zm0,15.75c-3.6,0-5.9-1.248-5.9-2.112V290.7a12.682,12.682,0,0,0,11.8,0v1.073C201.431,292.624,199.133,293.882,195.532,293.882Z" transform="translate(-165.171 -243.204)" fill="#e57828"/>
  <path id="패스_683" data-name="패스 683" d="M358.032,224c-4.236,0-7.432,1.565-7.432,3.645v17.271c0,2.08,3.2,3.645,7.432,3.645s7.432-1.565,7.432-3.645V227.645C365.463,225.565,362.267,224,358.032,224Zm5.9,15.969c-.843.9-3.032,1.686-5.9,1.686s-5.046-.788-5.9-1.686v-1.883a12.682,12.682,0,0,0,11.8,0Zm0-2.879c-.843.9-3.032,1.686-5.9,1.686s-5.046-.788-5.9-1.686v-1.883a12.682,12.682,0,0,0,11.8,0Zm0-2.879c-.843.9-3.032,1.686-5.9,1.686s-5.046-.788-5.9-1.686v-1.883a12.682,12.682,0,0,0,11.8,0Zm0-2.879c-.843.9-3.032,1.686-5.9,1.686s-5.046-.788-5.9-1.686v-1.883a12.682,12.682,0,0,0,11.8,0Zm-11.8,9.643a12.682,12.682,0,0,0,11.8,0v1.883c-.843.9-3.032,1.686-5.9,1.686s-5.046-.788-5.9-1.686Zm5.9-15.443c3.6,0,5.9,1.248,5.9,2.112v.81c-.843.9-3.032,1.686-5.9,1.686s-5.046-.788-5.9-1.686v-.81C352.132,226.791,354.431,225.532,358.032,225.532Zm0,21.507c-3.6,0-5.9-1.248-5.9-2.112v-1.073a12.682,12.682,0,0,0,11.8,0v1.073C363.931,245.781,361.633,247.039,358.032,247.039Z" transform="translate(-309.885 -196.36)" fill="#e57828"/>
  <path id="패스_684" data-name="패스 684" d="M70.524,87.535a2.831,2.831,0,0,0,2.824-2.824,1.4,1.4,0,0,0-.011-.219l12.685-4.684a2.828,2.828,0,0,0,5.111-1.664A2.8,2.8,0,0,0,91,77.28l13.254-8.811a2.8,2.8,0,0,0,1.839.679,2.808,2.808,0,1,0-2.692-1.959L90.148,76a2.8,2.8,0,0,0-1.839-.679,2.831,2.831,0,0,0-2.824,2.824,1.4,1.4,0,0,0,.011.219L72.811,83.048a2.826,2.826,0,1,0-2.288,4.487Zm35.571-22.5a1.292,1.292,0,1,1-1.291,1.292A1.294,1.294,0,0,1,106.1,65.032ZM88.309,76.864a1.292,1.292,0,1,1-1.2,1.751v-.022a1.191,1.191,0,0,1-.077-.438A1.278,1.278,0,0,1,88.309,76.864ZM70.524,83.42a1.292,1.292,0,1,1-1.292,1.292A1.294,1.294,0,0,1,70.524,83.42Z" transform="translate(-57.949 -53.427)" fill="#e57828"/>
</svg>
