<svg xmlns="http://www.w3.org/2000/svg" width="104" height="14.022" viewBox="0 0 104 14.022">
  <g id="그룹_1570" data-name="그룹 1570" transform="translate(24.5 -35.378)">
    <g id="그룹_202" data-name="그룹 202">
      <path id="패스_514" data-name="패스 514" d="M8.8,40a4.991,4.991,0,0,0-1.1-1.7A5.154,5.154,0,0,0,4.1,37H0V47.3H4.1a6.448,6.448,0,0,0,2-.3,3.36,3.36,0,0,0,1.6-1,3.858,3.858,0,0,0,1.1-1.7,5.382,5.382,0,0,0,.4-2.2A4.638,4.638,0,0,0,8.8,40ZM6.9,43.9a2,2,0,0,1-.8,1,3.128,3.128,0,0,1-1,.5,4.1,4.1,0,0,1-1.1.1H2V38.7H4.1a4.1,4.1,0,0,1,1.1.1,1.905,1.905,0,0,1,1,.5,2.723,2.723,0,0,1,.8,1A3.985,3.985,0,0,1,7.3,42,6.092,6.092,0,0,1,6.9,43.9Z" fill="#82929f"/>
      <path id="패스_515" data-name="패스 515" d="M14.6,37h-.2L9.2,47.3h2.1l3.2-6.4,3.2,6.4h2.1Z" fill="#82929f"/>
      <path id="패스_516" data-name="패스 516" d="M31.1,37h-.2L25.6,47.3h2.1l3.2-6.4,3.2,6.4h2.1Z" fill="#82929f"/>
      <path id="패스_517" data-name="패스 517" d="M18.9,37v1.7h3v8.5h2V38.7h2.9V37Z" fill="#82929f"/>
      <path id="패스_518" data-name="패스 518" d="M44.9,37v4.5H39.8V37h-2V47.3h2V43.2h5.1v4.1h2V37Z" fill="#82929f"/>
      <path id="패스_519" data-name="패스 519" d="M56.7,38.7V37H49.1V47.3h7.6V45.5H51.1V43.1h5V41.3h-5V38.7Z" fill="#82929f"/>
      <path id="패스_520" data-name="패스 520" d="M65.1,43.8a4.813,4.813,0,0,0,1.6-1.2,3.606,3.606,0,0,0,.6-2,3.194,3.194,0,0,0-.3-1.4,4.129,4.129,0,0,0-.7-1.1,2.589,2.589,0,0,0-1.1-.7,3.194,3.194,0,0,0-1.4-.3H59V47.4h2V44h1.9c.4.6.8,1.1,1.2,1.7.4.5.8,1.1,1.2,1.6h2.4C66.8,46.1,65.9,45,65.1,43.8Zm-.9-1.6a1.268,1.268,0,0,1-.6.1H61V38.8h2.7a1.884,1.884,0,0,1,.8.2,1.205,1.205,0,0,1,.5.5,1.421,1.421,0,0,1,.2.6,4.331,4.331,0,0,0,.1.5,2.2,2.2,0,0,1-.1.8,1,1,0,0,1-.4.5Z" fill="#82929f"/>
      <path id="패스_521" data-name="패스 521" d="M79.1,40.1A7.119,7.119,0,0,0,78,38.4a3.858,3.858,0,0,0-1.7-1.1,4.638,4.638,0,0,0-2.1-.4,5.222,5.222,0,0,0-2.1.4,9.908,9.908,0,0,0-1.7,1.1,4.517,4.517,0,0,0-1.1,1.7,4.918,4.918,0,0,0-.4,2.1,5.222,5.222,0,0,0,.4,2.1A9.908,9.908,0,0,0,70.4,46a4.517,4.517,0,0,0,1.7,1.1,4.638,4.638,0,0,0,2.1.4,5.222,5.222,0,0,0,2.1-.4A9.908,9.908,0,0,0,78,46a3.858,3.858,0,0,0,1.1-1.7,5.712,5.712,0,0,0,0-4.2Zm-1.8,3.4a4.129,4.129,0,0,1-.7,1.1,4.44,4.44,0,0,1-1.1.8,2.967,2.967,0,0,1-2.6,0,2.836,2.836,0,0,1-1.1-.8,4.129,4.129,0,0,1-.7-1.1,3.079,3.079,0,0,1-.3-1.3,2.768,2.768,0,0,1,.3-1.3,4.129,4.129,0,0,1,.7-1.1,4.44,4.44,0,0,1,1.1-.8,2.967,2.967,0,0,1,2.6,0,2.836,2.836,0,0,1,1.1.8,4.129,4.129,0,0,1,.7,1.1,3.079,3.079,0,0,1,.3,1.3A6.107,6.107,0,0,1,77.3,43.5Z" fill="#82929f"/>
    </g>
    <g id="그룹_203" data-name="그룹 203" transform="translate(-46 35.378)">
      <path id="패스_522" data-name="패스 522" d="M32.56,0H26.789V.763H32.56a6.239,6.239,0,0,1,4.388,10.683,6.2,6.2,0,0,1-4.436,1.812H28.077v-.525H32.37a5.979,5.979,0,0,0,4.1-1.669,5.708,5.708,0,0,0,1.717-4.054A5.792,5.792,0,0,0,32.37,1.288H24.5v.763h7.917a5.048,5.048,0,0,1,5.056,5.008,4.944,4.944,0,0,1-1.479,3.529,5.054,5.054,0,0,1-3.577,1.479H28.125V5.151h-.763v6.82h-.572V6.486h-.763v6.248h1.335v1.288h5.2A7.011,7.011,0,0,0,32.56,0Z" transform="translate(-1.569)" fill="#82929f"/>
      <rect id="사각형_211" data-name="사각형 211" width="0.763" height="0.763" transform="translate(21.5 1.24)" fill="#82929f"/>
      <rect id="사각형_212" data-name="사각형 212" width="0.62" height="0.763" transform="translate(23.837)" fill="#82929f"/>
      <rect id="사각형_213" data-name="사각형 213" width="0.763" height="0.763" transform="translate(25.792 3.768)" fill="#82929f"/>
    </g>
  </g>
</svg>
