<svg xmlns="http://www.w3.org/2000/svg" width="540" height="62.457" viewBox="0 0 540 62.457">
  <g id="그룹_2884" data-name="그룹 2884" transform="translate(12591 5262.145)">
    <g id="배당매력주" transform="translate(-12591 -5262.145)">
      <rect id="사각형_2815" data-name="사각형 2815" width="60" height="60" fill="#fff" opacity="0"/>
      <g id="C_-_35_growth_Business_care_finance_grow_growing_money_raise" data-name="C - 35, growth, Business, care, finance, grow, growing, money, raise" transform="translate(14.049 14.082)">
        <g id="그룹_475" data-name="그룹 475" transform="translate(0 0)">
          <path id="패스_685" data-name="패스 685" d="M141.709,326.029H153.5a.561.561,0,0,1,0,1.121H142.147l2.069,5.294h14.274l4.158-10.641H150.278a.561.561,0,0,1,0-1.121h12.807l2.486-6.363H137.133Z" transform="translate(-134.725 -291.781)" fill="#fff" fill-rule="evenodd"/>
          <path id="패스_686" data-name="패스 686" d="M133.067,125.9v12.808l-3.21-2.869c.088-2.3-.552-4.043-1.862-5.036a4.584,4.584,0,0,0-2.837-.876,8.711,8.711,0,0,0-2.795.518.56.56,0,0,0-.378.5c-.152,2.443.488,4.28,1.85,5.312a4.585,4.585,0,0,0,2.837.876h0a8.418,8.418,0,0,0,2.48-.416l3.915,3.5v3.839a.569.569,0,0,0,.011.112H117v3.156h33.255v-3.156H134.176a.56.56,0,0,0,.011-.112V136.4l3.558-2.964a.55.55,0,0,0,.07.02,9.832,9.832,0,0,0,1.9.2,4.949,4.949,0,0,0,3.635-1.309c1.21-1.2,1.6-3.11,1.115-5.511a.56.56,0,0,0-.441-.44,9.828,9.828,0,0,0-1.9-.2,4.948,4.948,0,0,0-3.635,1.309,5.523,5.523,0,0,0-1.222,4.87l-3.08,2.567V125.9" transform="translate(-117 -125.9)" fill="#fff" fill-rule="evenodd"/>
          <rect id="사각형_1042" data-name="사각형 1042" width="2.146" height="2.135" transform="translate(19.854 12.359)" fill="#fff"/>
          <rect id="사각형_1043" data-name="사각형 1043" width="2.145" height="2.135" transform="translate(24.151 12.359)" fill="#fff"/>
          <rect id="사각형_1044" data-name="사각형 1044" width="2.146" height="2.135" transform="translate(28.448 12.359)" fill="#fff"/>
          <rect id="사각형_1045" data-name="사각형 1045" width="2.145" height="2.135" transform="translate(0.517 12.359)" fill="#fff"/>
          <rect id="사각형_1046" data-name="사각형 1046" width="2.145" height="2.135" transform="translate(4.815 12.359)" fill="#fff"/>
          <rect id="사각형_1047" data-name="사각형 1047" width="2.145" height="2.135" transform="translate(9.111 12.359)" fill="#fff"/>
        </g>
      </g>
      <g id="그룹_476" data-name="그룹 476" transform="translate(25.789 4.806)">
        <path id="패스_687" data-name="패스 687" d="M254.275,78.564h.162l-.084-.5Z" transform="translate(-249.594 -74.511)" fill="#fff"/>
        <path id="패스_688" data-name="패스 688" d="M245.426,88.967l.15-.9h-.3Z" transform="translate(-241.67 -83.32)" fill="#fff"/>
        <path id="패스_689" data-name="패스 689" d="M219.9,48.357a4.766,4.766,0,1,0,4.766,4.766A4.766,4.766,0,0,0,219.9,48.357Zm2.671,4.63a.154.154,0,0,1-.021.1q-.021.024-.105.024h-.662l-.463,2.039c-.008.044-.021.07-.039.078a.3.3,0,0,1-.105.012h-.523a.2.2,0,0,1-.1-.015.125.125,0,0,1-.033-.075l-.439-2.039H219.7l-.433,2.039a.125.125,0,0,1-.033.075.2.2,0,0,1-.1.015h-.529a.223.223,0,0,1-.105-.015.124.124,0,0,1-.033-.075L218,53.108h-.674a.154.154,0,0,1-.1-.021.139.139,0,0,1-.024-.1V52.53a.139.139,0,0,1,.024-.1.155.155,0,0,1,.1-.021h.517l-.313-1.431a.173.173,0,0,1,0-.12q.021-.03.129-.03h.481a.34.34,0,0,1,.09.009c.02.006.034.033.042.081l.319,1.492h.578l.3-1.492q.012-.066.042-.078a.283.283,0,0,1,.1-.012h.559a.284.284,0,0,1,.1.012q.03.012.042.078l.313,1.492h.589l.313-1.492q.012-.066.036-.078a.251.251,0,0,1,.1-.012h.487q.1,0,.111.027a.229.229,0,0,1,0,.123l-.295,1.431h.493c.056,0,.091.008.105.024a.155.155,0,0,1,.021.1Z" transform="translate(-215.139 -48.357)" fill="#fff"/>
        <path id="패스_690" data-name="패스 690" d="M262.275,88.973l.15-.9h-.307Z" transform="translate(-256.499 -83.32)" fill="#fff"/>
      </g>
    </g>
    <g id="이익성장주" transform="translate(-12511 -5262.145)">
      <rect id="사각형_2816" data-name="사각형 2816" width="60" height="60" fill="#fff" opacity="0"/>
      <path id="패스_681" data-name="패스 681" d="M33.032,329.2c-4.236,0-7.432,1.565-7.432,3.645V338.6c0,2.08,3.2,3.645,7.432,3.645s7.432-1.565,7.432-3.645v-5.757C40.463,330.776,37.267,329.2,33.032,329.2Zm-5.9,5.462a10.675,10.675,0,0,0,5.9,1.456,10.675,10.675,0,0,0,5.9-1.456v1.883c-.843.9-3.032,1.686-5.9,1.686s-5.046-.788-5.9-1.686Zm5.9-3.929c3.6,0,5.9,1.248,5.9,2.112v.81c-.843.9-3.032,1.686-5.9,1.686s-5.046-.788-5.9-1.686v-.81C27.132,331.991,29.431,330.732,33.032,330.732Zm0,9.993c-3.6,0-5.9-1.248-5.9-2.112V337.54a10.676,10.676,0,0,0,5.9,1.456,10.676,10.676,0,0,0,5.9-1.456v1.073C38.931,339.466,36.633,340.725,33.032,340.725Z" transform="translate(-20.457 -290.047)" fill="#fff"/>
      <path id="패스_682" data-name="패스 682" d="M195.532,276.6c-4.236,0-7.432,1.565-7.432,3.645v11.514c0,2.08,3.2,3.645,7.432,3.645s7.432-1.565,7.432-3.645V280.245C202.963,278.165,199.767,276.6,195.532,276.6Zm5.9,10.212c-.843.9-3.032,1.686-5.9,1.686s-5.046-.788-5.9-1.686v-1.883a12.682,12.682,0,0,0,11.8,0Zm0-2.879c-.843.9-3.032,1.686-5.9,1.686s-5.046-.788-5.9-1.686v-1.883a12.682,12.682,0,0,0,11.8,0Zm-11.8,3.885a12.682,12.682,0,0,0,11.8,0V289.7c-.843.9-3.032,1.686-5.9,1.686s-5.046-.788-5.9-1.686Zm5.9-9.686c3.6,0,5.9,1.248,5.9,2.112v.81c-.843.9-3.032,1.686-5.9,1.686s-5.046-.788-5.9-1.686v-.81C189.632,279.391,191.931,278.132,195.532,278.132Zm0,15.75c-3.6,0-5.9-1.248-5.9-2.112V290.7a12.682,12.682,0,0,0,11.8,0v1.073C201.431,292.624,199.133,293.882,195.532,293.882Z" transform="translate(-165.171 -243.204)" fill="#fff"/>
      <path id="패스_683" data-name="패스 683" d="M358.032,224c-4.236,0-7.432,1.565-7.432,3.645v17.271c0,2.08,3.2,3.645,7.432,3.645s7.432-1.565,7.432-3.645V227.645C365.463,225.565,362.267,224,358.032,224Zm5.9,15.969c-.843.9-3.032,1.686-5.9,1.686s-5.046-.788-5.9-1.686v-1.883a12.682,12.682,0,0,0,11.8,0Zm0-2.879c-.843.9-3.032,1.686-5.9,1.686s-5.046-.788-5.9-1.686v-1.883a12.682,12.682,0,0,0,11.8,0Zm0-2.879c-.843.9-3.032,1.686-5.9,1.686s-5.046-.788-5.9-1.686v-1.883a12.682,12.682,0,0,0,11.8,0Zm0-2.879c-.843.9-3.032,1.686-5.9,1.686s-5.046-.788-5.9-1.686v-1.883a12.682,12.682,0,0,0,11.8,0Zm-11.8,9.643a12.682,12.682,0,0,0,11.8,0v1.883c-.843.9-3.032,1.686-5.9,1.686s-5.046-.788-5.9-1.686Zm5.9-15.443c3.6,0,5.9,1.248,5.9,2.112v.81c-.843.9-3.032,1.686-5.9,1.686s-5.046-.788-5.9-1.686v-.81C352.132,226.791,354.431,225.532,358.032,225.532Zm0,21.507c-3.6,0-5.9-1.248-5.9-2.112v-1.073a12.682,12.682,0,0,0,11.8,0v1.073C363.931,245.781,361.633,247.039,358.032,247.039Z" transform="translate(-309.885 -196.36)" fill="#fff"/>
      <path id="패스_684" data-name="패스 684" d="M70.524,87.535a2.831,2.831,0,0,0,2.824-2.824,1.4,1.4,0,0,0-.011-.219l12.685-4.684a2.828,2.828,0,0,0,5.111-1.664A2.8,2.8,0,0,0,91,77.28l13.254-8.811a2.8,2.8,0,0,0,1.839.679,2.808,2.808,0,1,0-2.692-1.959L90.148,76a2.8,2.8,0,0,0-1.839-.679,2.831,2.831,0,0,0-2.824,2.824,1.4,1.4,0,0,0,.011.219L72.811,83.048a2.826,2.826,0,1,0-2.288,4.487Zm35.571-22.5a1.292,1.292,0,1,1-1.291,1.292A1.294,1.294,0,0,1,106.1,65.032ZM88.309,76.864a1.292,1.292,0,1,1-1.2,1.751v-.022a1.191,1.191,0,0,1-.077-.438A1.278,1.278,0,0,1,88.309,76.864ZM70.524,83.42a1.292,1.292,0,1,1-1.292,1.292A1.294,1.294,0,0,1,70.524,83.42Z" transform="translate(-57.949 -53.427)" fill="#fff"/>
    </g>
    <g id="소비자독점" transform="translate(-12431 -5259.688)">
      <rect id="사각형_2817" data-name="사각형 2817" width="60" height="60" fill="#fff" opacity="0"/>
      <path id="패스_680" data-name="패스 680" d="M187.763,49.85a1.341,1.341,0,1,0,.39.948,1.341,1.341,0,0,0-.39-.948m-33.434-.027a1.335,1.335,0,0,0-1.9,0,1.337,1.337,0,0,0,1.834,1.946h0l.015-.012,0-.008h0l.012-.012v0l.008-.008h0l0,0,.008-.008.008-.008v0l.008,0a1.341,1.341,0,0,0-.015-1.876Zm25.515,16.993a77.9,77.9,0,0,0-19.043,0c-2.2.325-3.567.669-3.567.951s1.365.627,3.567.952a68.609,68.609,0,0,0,9.524.584,68.623,68.623,0,0,0,9.52-.584c2.2-.325,3.567-.669,3.567-.952S182.045,67.141,179.844,66.816Zm-9.705-20.39.155.012.2-.016h.008l0,0,.162-.035a1.34,1.34,0,0,0-.371-2.626,1.338,1.338,0,0,0-.925.371l-.019.023a1.325,1.325,0,0,0-.395.944,1.34,1.34,0,0,0,.391.948,1.362,1.362,0,0,0,.631.356l.015,0,.015,0,.066.012.015,0Zm10.085-.317a.476.476,0,1,1,0,.952H178.63a.476.476,0,0,1,0-.952Zm-19.836.952a.476.476,0,0,1,0-.952h1.594a.476.476,0,1,1,0,.952Zm-8.8,0a.476.476,0,0,1,0-.952h3.006a.476.476,0,0,1,0,.952Zm18.243-20.583a.476.476,0,0,1,.952,0v4.63a.476.476,0,1,1-.952,0v-4.63Zm18.784,9.636a.475.475,0,1,1,.453.835L184.8,39.262a.475.475,0,1,1-.453-.836Zm-37.069.835a.475.475,0,0,1,.453-.835l4.267,2.313a.475.475,0,1,1-.453.836ZM179.26,31.1a.48.48,0,0,1,.654-.155.473.473,0,0,1,.155.654l-1.5,2.449a.477.477,0,0,1-.812-.5Zm-18.718.5a.473.473,0,0,1,.155-.654.479.479,0,0,1,.654.155l1.5,2.449a.475.475,0,0,1-.808.5Zm9.288,3.644a.476.476,0,1,1,.952,0v2.611a.476.476,0,0,1-.952,0V35.247ZM179.887,40.5a.474.474,0,1,1,.476.82L178.1,42.631a.474.474,0,1,1-.476-.82Zm-19.639.82a.474.474,0,0,1,.476-.82l2.263,1.307a.474.474,0,0,1-.476.82Zm14.606-3.567a.478.478,0,0,1,.646-.174.471.471,0,0,1,.174.646l-.8,1.381a.469.469,0,0,1-.646.174.476.476,0,0,1-.174-.646Zm-9.918.472a.473.473,0,1,1,.82-.472l.8,1.381a.473.473,0,0,1-.82.472Zm24.087,7.879a.476.476,0,1,1,0,.952h-3.005a.476.476,0,1,1,0-.952ZM170.6,47.366h-.012l0,0h-.027l0,0h-.031l0,0h-.039l-.008,0h-.05l0,0h-.127c-.085,0-.17,0-.252-.012l-6.011,9.775-8.978-4.816-.054.054a2.17,2.17,0,0,1-.166.155l2.259,14.293.035-.019h0l.035-.019.027-.012.008,0,.038-.019.019-.008c3.122-1.474,12.138-1.474,13.067-1.474,1.218,0,9.69,0,12.966,1.427l.031.015.008,0,.038.015.019.012.019.008.039.019.008,0,.027.012.035.019h0l.035.019,2.212-14a2.094,2.094,0,0,1-.484-.336l-8.665,4.653Z" transform="translate(-140.482 -17.431)" fill="#fff" fill-rule="evenodd"/>
    </g>
    <g id="슈퍼스톡" transform="translate(-12351 -5261.688)">
      <rect id="사각형_2818" data-name="사각형 2818" width="60" height="60" fill="#fff" opacity="0"/>
      <g id="그룹_2639" data-name="그룹 2639" transform="translate(6.99 12.857)">
        <path id="패스_675" data-name="패스 675" d="M124.488,192.681a5.262,5.262,0,1,1-5.262-5.263A5.262,5.262,0,0,1,124.488,192.681Z" transform="translate(-110.121 -178.474)" fill="#fff"/>
        <path id="패스_676" data-name="패스 676" d="M91.033,247.375l3.042,3.318,3.546-3.546a22.919,22.919,0,0,0,12.879-4.324s2.449-1.67,3.639.938c0,0,1.051,3.066-2.632,4.415,0,0-8.143,4.735-10.751,4.895v8.145H84.97V253.05S85.107,248.017,91.033,247.375Z" transform="translate(-84.97 -226.078)" fill="#fff"/>
        <path id="패스_677" data-name="패스 677" d="M174.909,128.4l-2.081-1.19v-5.651s.387-1.578,1.806-1.624h30.93s1.738.229,1.692,1.853v23.265a1.566,1.566,0,0,1-1.737,1.395c-1.578-.114-20.933,0-20.933,0l3.637-1.83h16.86V121.95H174.932Z" transform="translate(-161.183 -119.937)" fill="#fff"/>
        <path id="패스_678" data-name="패스 678" d="M234.636,187.2l-1.052-1.761,6.037-3.684a1.113,1.113,0,0,1,1.74,0l3.821,2.951,4.918-4.186-1.373-1.258,4.461-.481-.251,4.461-1.4-1.395-5.7,4.759s-.687.778-1.6-.185l-3.82-2.973Z" transform="translate(-213.886 -170.986)" fill="#fff"/>
      </g>
    </g>
    <g id="실적발표" transform="translate(-12271 -5262.145)">
      <rect id="사각형_2819" data-name="사각형 2819" width="60" height="60" fill="#fff" opacity="0"/>
      <g id="그룹_2640" data-name="그룹 2640" transform="translate(8.989 9.35)">
        <path id="패스_3639" data-name="패스 3639" d="M385.507,197H359.06a5.667,5.667,0,0,0-5.6,5.725v25.623h-4.534a.922.922,0,0,0-.924.924v4.877a4.03,4.03,0,0,0,3.984,4.068h25.028a4.855,4.855,0,0,0,4.793-4.9V207.693h8.022a.919.919,0,0,0,.916-.916v-4.541A5.245,5.245,0,0,0,385.507,197Zm-33.523,39.69a2.509,2.509,0,0,1-2.458-2.542v-4.274h21.967v2.893a5.493,5.493,0,0,0,1.641,3.923Zm28.295-34.454v31.08a3.324,3.324,0,0,1-3.267,3.374h-.183a3.874,3.874,0,0,1-3.809-3.923v-3.656a.761.761,0,0,0-.763-.763H354.984V202.725a4.142,4.142,0,0,1,4.076-4.2h22.761A5.207,5.207,0,0,0,380.279,202.236Zm8.938,3.931h-7.411v-3.931a3.706,3.706,0,1,1,7.411,0Z" transform="translate(-348 -197)" fill="#fff"/>
        <path id="패스_3640" data-name="패스 3640" d="M376.672,205.288c-3.259-1.817-5.32-1.824-5.74-1.809-.42-.015-2.481,0-5.732,1.809a1.607,1.607,0,0,0-.84,1.389v7.114a2.611,2.611,0,0,0,1.175,2.145l4.854,3.343a.963.963,0,0,0,.542.168.928.928,0,0,0,.542-.168l4.862-3.343a2.611,2.611,0,0,0,1.175-2.145v-7.114A1.607,1.607,0,0,0,376.672,205.288Zm-.687,8.5a1.115,1.115,0,0,1-.511.893l-4.542,3.114-4.534-3.114a1.1,1.1,0,0,1-.511-.893v-7.106a.109.109,0,0,1,.053-.061,10.548,10.548,0,0,1,4.839-1.618h.084l.069.008.069-.008c.023,0,1.817-.122,4.923,1.618a.138.138,0,0,1,.061.053Z" transform="translate(-351.873 -198.533)" fill="#fff"/>
        <path id="패스_3641" data-name="패스 3641" d="M375.141,210.45l-2.679,5.022a.936.936,0,0,1-.786.5.149.149,0,0,1-.061.008.939.939,0,0,1-.779-.4l-2-2.786a.775.775,0,0,1,.176-1.069.766.766,0,0,1,1.069.176l1.465,2.046,2.244-4.213a.761.761,0,0,1,1.03-.321A.769.769,0,0,1,375.141,210.45Z" transform="translate(-352.899 -199.917)" fill="#fff"/>
        <path id="패스_3642" data-name="패스 3642" d="M372.506,228.553a.761.761,0,0,1-.763.763h-9.449a.763.763,0,0,1,0-1.527h9.449A.766.766,0,0,1,372.506,228.553Z" transform="translate(-351.203 -204.289)" fill="#fff"/>
        <path id="패스_3643" data-name="패스 3643" d="M382.846,228.553a.761.761,0,0,1-.763.763h-3.549a.763.763,0,1,1,0-1.527h3.549A.766.766,0,0,1,382.846,228.553Z" transform="translate(-355.047 -204.289)" fill="#fff"/>
        <path id="패스_3644" data-name="패스 3644" d="M381.016,233.433a.766.766,0,0,1-.763.763H370.8a.763.763,0,1,1,0-1.527h9.449A.766.766,0,0,1,381.016,233.433Z" transform="translate(-353.218 -205.444)" fill="#fff"/>
        <path id="패스_3645" data-name="패스 3645" d="M366.6,233.433a.761.761,0,0,1-.763.763h-3.542a.763.763,0,0,1,0-1.527h3.542A.761.761,0,0,1,366.6,233.433Z" transform="translate(-351.203 -205.444)" fill="#fff"/>
      </g>
    </g>
    <g id="급등주_상승주" data-name="급등주/상승주" transform="translate(-12191 -5261.688)">
      <rect id="사각형_2820" data-name="사각형 2820" width="60" height="60" fill="#fff" opacity="0"/>
      <g id="그룹_2641" data-name="그룹 2641" transform="translate(6.484 5.03)">
        <path id="패스_4356" data-name="패스 4356" d="M176.606,95.325a.977.977,0,1,1,0-1.955,3,3,0,1,0-.854-5.873.978.978,0,0,1-.548-1.877,5.015,5.015,0,0,1,1.4-.2,4.952,4.952,0,1,1,0,9.9Z" transform="translate(-136.329 -45.385)" fill="#fff"/>
        <path id="패스_4357" data-name="패스 4357" d="M175.545,88.834a.977.977,0,0,1-.977-.977,3,3,0,0,0-6,0,.977.977,0,1,1-1.955,0,4.954,4.954,0,1,1,9.908,0A.978.978,0,0,1,175.545,88.834Z" transform="translate(-136.151 -45.328)" fill="#fff"/>
        <path id="패스_4358" data-name="패스 4358" d="M142.2,95.325a4.952,4.952,0,1,1,1.4-9.7.978.978,0,1,1-.555,1.875,2.963,2.963,0,0,0-.846-.12,3,3,0,1,0,0,5.994.977.977,0,0,1,0,1.955Z" transform="translate(-135.49 -45.385)" fill="#fff"/>
        <path id="패스_4359" data-name="패스 4359" d="M151.148,88.834a.978.978,0,0,1-.977-.977,3,3,0,1,0-5.992,0,.977.977,0,1,1-1.955,0,4.951,4.951,0,1,1,9.9,0A.977.977,0,0,1,151.148,88.834Z" transform="translate(-135.602 -45.328)" fill="#fff"/>
        <path id="패스_4360" data-name="패스 4360" d="M148.827,78.828a.976.976,0,0,1-.977-.977V73.069a.974.974,0,0,1,.273-.678L151.67,68.7a.978.978,0,1,1,1.409,1.356l-3.274,3.4v2.351l.76-.611a.978.978,0,1,1,1.224,1.525l-2.35,1.886A.977.977,0,0,1,148.827,78.828Z" transform="translate(-135.729 -45.002)" fill="#fff"/>
        <path id="패스_4361" data-name="패스 4361" d="M169.9,78.828a.971.971,0,0,1-.612-.215l-2.351-1.886a.978.978,0,0,1,1.224-1.525l.761.611V73.463l-3.276-3.4a.978.978,0,0,1,1.41-1.356l3.548,3.686a.983.983,0,0,1,.273.678V77.85a.977.977,0,0,1-.978.977Z" transform="translate(-136.124 -45.002)" fill="#fff"/>
        <path id="패스_4362" data-name="패스 4362" d="M163.973,77.148a1.012,1.012,0,0,1-.186-.018,1.088,1.088,0,0,1-.126-.033H154.7l-.035.007a.959.959,0,0,1-1.093-.568,32.056,32.056,0,0,1-2.465-13.308c0-10.706,4.923-18.765,8.115-18.765s8.114,8.058,8.114,18.765a32.164,32.164,0,0,1-2.459,13.308A.978.978,0,0,1,163.973,77.148Zm-8.847-2.006h8.2a30.384,30.384,0,0,0,2.057-11.915c0-10.69-4.841-16.81-6.159-16.81s-6.16,6.12-6.16,16.81A30.292,30.292,0,0,0,155.126,75.142Z" transform="translate(-135.803 -44.463)" fill="#fff"/>
        <path id="패스_4363" data-name="패스 4363" d="M159.311,66.782a4.366,4.366,0,1,1,4.369-4.364A4.369,4.369,0,0,1,159.311,66.782Zm0-6.778a2.411,2.411,0,1,0,2.414,2.413A2.415,2.415,0,0,0,159.311,60Z" transform="translate(-135.889 -44.769)" fill="#fff"/>
        <path id="패스_4364" data-name="패스 4364" d="M163.916,82.109H154.5a.978.978,0,0,1-.96-1.163l.825-4.254a.978.978,0,0,1,.96-.791h7.89a.977.977,0,0,1,.965.822l.655,4.064a.98.98,0,0,1-.916,1.322Zm-8.234-1.955h7.068l-.37-2.3h-6.252Z" transform="translate(-135.857 -45.171)" fill="#fff"/>
        <path id="패스_4365" data-name="패스 4365" d="M160.846,73.876c0,2.317-.689,4.2-1.552,4.2s-1.551-1.881-1.551-4.2.693-4.2,1.551-4.2S160.846,71.555,160.846,73.876Z" transform="translate(-135.952 -45.031)" fill="#fff"/>
        <path id="패스_4366" data-name="패스 4366" d="M159.271,79.029c-1.747,0-2.529-2.6-2.529-5.175s.782-5.181,2.529-5.181,2.53,2.6,2.53,5.181S161.018,79.029,159.271,79.029Zm0-8.223a8.353,8.353,0,0,0,0,6.09,8.366,8.366,0,0,0,0-6.09Z" transform="translate(-135.929 -45.008)" fill="#fff"/>
        <rect id="사각형_2503" data-name="사각형 2503" width="10.097" height="1.955" transform="translate(18.641 7.006)" fill="#fff"/>
        <path id="패스_4367" data-name="패스 4367" d="M159.183,91.62a.974.974,0,0,1-.651-.248,8.646,8.646,0,0,1-2.4-3.45l-.282.207a.977.977,0,0,1-1.464-.374c-1.7-3.646-.012-6.219,1.119-7.069a.978.978,0,0,1,1.176,1.562,3.347,3.347,0,0,0-.935,3.534l.4-.3a.978.978,0,0,1,1.555.731,5.7,5.7,0,0,0,1.482,3.05,5.4,5.4,0,0,0,1.468-3.038.982.982,0,0,1,1.56-.74l.739.551a4.463,4.463,0,0,0,.181-1.34.979.979,0,0,1,.966-.989.989.989,0,0,1,.989.965,6.342,6.342,0,0,1-.91,3.381.979.979,0,0,1-1.419.277l-.524-.39a8.385,8.385,0,0,1-2.413,3.436A.975.975,0,0,1,159.183,91.62Z" transform="translate(-135.86 -45.274)" fill="#fff"/>
        <path id="패스_4368" data-name="패스 4368" d="M181.506,95.508H136.427a.977.977,0,1,1,0-1.955h45.079a.977.977,0,1,1,0,1.955Z" transform="translate(-135.45 -45.568)" fill="#fff"/>
      </g>
    </g>
    <g id="관심_TOP50" data-name="관심 TOP50" transform="translate(-12111 -5261.688)">
      <rect id="사각형_2821" data-name="사각형 2821" width="60" height="60" fill="#fff" opacity="0"/>
      <g id="그룹_2642" data-name="그룹 2642" transform="translate(1.839 6.486)">
        <g id="그룹_2034" data-name="그룹 2034" transform="translate(0.367 30.662)">
          <path id="패스_4322" data-name="패스 4322" d="M504.448,138.94h0c-3.57,0-5.47-2.932-8.175-7.76a1.568,1.568,0,0,1,1.3-2.315c1.16-.043,2.061-.062,2.836-.062,5.439,0,8.218.993,9.3,6.638a2.4,2.4,0,0,1-1.5,2.68A10.8,10.8,0,0,1,504.448,138.94Zm-6.05-8.089c2.541,4.468,3.9,6.075,6.049,6.075h0a9.051,9.051,0,0,0,3.053-.693.391.391,0,0,0,.232-.414c-.79-4.116-2.091-5-7.326-5C499.833,130.815,499.182,130.827,498.4,130.851Z" transform="translate(-496.078 -128.802)" fill="#fff"/>
        </g>
        <g id="그룹_2035" data-name="그룹 2035" transform="translate(11.063 37.405)">
          <path id="패스_4323" data-name="패스 4323" d="M526.307,151.824h0c-2.16,0-4.478-1.214-8.265-3.606a1.569,1.569,0,0,1,.039-2.655c3.775-2.23,6.079-3.363,8.2-3.363,2,0,3.676,1,5.6,3.358a2.4,2.4,0,0,1-.046,3.073C529.892,150.868,528.237,151.824,526.307,151.824Zm-6.554-4.908c3.021,1.881,5,2.895,6.554,2.895,1.306,0,2.469-.725,4.015-2.5a.392.392,0,0,0,.007-.475c-1.526-1.861-2.7-2.621-4.048-2.621C524.742,144.213,522.767,145.16,519.753,146.915Z" transform="translate(-517.327 -142.2)" fill="#fff"/>
        </g>
        <g id="그룹_2036" data-name="그룹 2036" transform="translate(0 17.128)">
          <path id="패스_4324" data-name="패스 4324" d="M502.793,115.327h0a2.366,2.366,0,0,1-.336-.025c-6.391-.934-7.051-4.155-7.11-11.833a1.525,1.525,0,0,1,.449-1.093,1.6,1.6,0,0,1,1.806-.31c6.86,3.452,9.456,5.468,7.465,11.613A2.412,2.412,0,0,1,502.793,115.327Zm-5.424-11.121c.1,7.223.908,8.451,5.38,9.1l.044,0a.394.394,0,0,0,.359-.254C504.545,108.76,503.8,107.494,497.369,104.205Z" transform="translate(-495.348 -101.912)" fill="#fff"/>
        </g>
        <g id="그룹_2037" data-name="그룹 2037" transform="translate(4.971 5.977)">
          <path id="패스_4325" data-name="패스 4325" d="M510.385,94.8h0a2.359,2.359,0,0,1-1.348-.416c-5.313-3.672-4.476-6.85-1.124-13.759a1.568,1.568,0,0,1,2.643-.257c4.617,6.136,6.049,9.095,1.54,13.72A2.4,2.4,0,0,1,510.385,94.8ZM509.4,82.18c-3.111,6.52-2.933,7.977.784,10.546a.362.362,0,0,0,.2.059h0a.381.381,0,0,0,.269-.1C513.809,89.445,513.7,87.98,509.4,82.18Z" transform="translate(-505.224 -79.757)" fill="#fff"/>
        </g>
        <g id="그룹_2038" data-name="그룹 2038" transform="translate(13.186)">
          <path id="패스_4326" data-name="패스 4326" d="M524.282,80.853h0a2.409,2.409,0,0,1-2.317-1.812c-1.545-6.271,1.189-8.1,8.279-11.047a1.582,1.582,0,0,1,1.741.4,1.542,1.542,0,0,1,.408,1.165c-.61,7.655-1.5,10.819-7.941,11.293C524.395,80.851,524.338,80.853,524.282,80.853Zm6.041-10.709c-6.65,2.818-7.484,4.028-6.4,8.416a.4.4,0,0,0,.363.28h.022C528.811,78.507,529.7,77.34,530.323,70.144Z" transform="translate(-521.547 -67.881)" fill="#fff"/>
        </g>
        <g id="그룹_2039" data-name="그룹 2039" transform="translate(43.238 30.662)">
          <path id="패스_4327" data-name="패스 4327" d="M586.561,138.94a10.8,10.8,0,0,1-3.759-.82,2.4,2.4,0,0,1-1.5-2.68c1.084-5.645,3.864-6.638,9.3-6.638.776,0,1.677.02,2.836.062a1.568,1.568,0,0,1,1.3,2.316C592.03,136.008,590.129,138.94,586.561,138.94Zm4.039-8.124c-5.234,0-6.535.889-7.326,5a.392.392,0,0,0,.233.414,9.053,9.053,0,0,0,3.054.693c2.146,0,3.508-1.608,6.049-6.075C591.826,130.827,591.175,130.815,590.6,130.815Z" transform="translate(-581.255 -128.802)" fill="#fff"/>
        </g>
        <g id="그룹_2040" data-name="그룹 2040" transform="translate(31.127 37.405)">
          <path id="패스_4328" data-name="패스 4328" d="M563.3,151.824c-1.931,0-3.586-.955-5.534-3.193a2.4,2.4,0,0,1-.045-3.073c1.929-2.354,3.605-3.358,5.6-3.358,2.121,0,4.426,1.132,8.2,3.363a1.569,1.569,0,0,1,.039,2.655C567.782,150.609,565.464,151.824,563.3,151.824Zm.025-7.61c-1.349,0-2.522.759-4.048,2.621a.392.392,0,0,0,.007.475c1.546,1.777,2.709,2.5,4.015,2.5,1.552,0,3.532-1.014,6.553-2.895C566.844,145.16,564.869,144.213,563.329,144.213Z" transform="translate(-557.192 -142.2)" fill="#fff"/>
        </g>
        <g id="그룹_2041" data-name="그룹 2041" transform="translate(46.908 17.128)">
          <path id="패스_4329" data-name="패스 4329" d="M591.475,115.326a2.412,2.412,0,0,1-2.274-1.647c-1.991-6.145.605-8.162,7.464-11.613a1.6,1.6,0,0,1,1.806.31,1.527,1.527,0,0,1,.449,1.093c-.059,7.678-.719,10.9-7.11,11.833A2.289,2.289,0,0,1,591.475,115.326ZM596.9,104.2c-6.431,3.289-7.176,4.555-5.783,8.854a.387.387,0,0,0,.4.251C595.99,112.656,596.8,111.428,596.9,104.2Z" transform="translate(-588.549 -101.912)" fill="#fff"/>
        </g>
        <g id="그룹_2042" data-name="그룹 2042" transform="translate(42.696 5.977)">
          <path id="패스_4330" data-name="패스 4330" d="M584.632,94.8a2.4,2.4,0,0,1-1.711-.712c-4.51-4.625-3.078-7.583,1.54-13.72a1.568,1.568,0,0,1,2.643.256c3.352,6.909,4.189,10.088-1.124,13.759A2.358,2.358,0,0,1,584.632,94.8Zm.987-12.619c-4.305,5.8-4.411,7.265-1.257,10.5a.406.406,0,0,0,.473.046C588.552,90.157,588.73,88.7,585.619,82.179Z" transform="translate(-580.179 -79.757)" fill="#fff"/>
        </g>
        <g id="그룹_2043" data-name="그룹 2043" transform="translate(33.244 0)">
          <path id="패스_4331" data-name="패스 4331" d="M569.514,80.853c-.056,0-.113,0-.17-.006-6.442-.474-7.331-3.638-7.941-11.293a1.544,1.544,0,0,1,.408-1.165,1.584,1.584,0,0,1,1.741-.4c7.089,2.95,9.823,4.776,8.279,11.047A2.41,2.41,0,0,1,569.514,80.853Zm-6.042-10.709c.621,7.2,1.513,8.363,6.02,8.695h.022a.4.4,0,0,0,.362-.28C570.957,74.172,570.123,72.963,563.472,70.144Z" transform="translate(-561.399 -67.882)" fill="#fff"/>
        </g>
        <g id="그룹_2052" data-name="그룹 2052" transform="translate(15.701 12.217)">
          <path id="패스_4340" data-name="패스 4340" d="M539.11,117.287a12.566,12.566,0,1,1,12.567-12.566A12.58,12.58,0,0,1,539.11,117.287Zm0-23.119a10.553,10.553,0,1,0,10.554,10.553A10.565,10.565,0,0,0,539.11,94.168Z" transform="translate(-526.544 -92.155)" fill="#fff"/>
        </g>
        <g id="icon_-_heart_off" data-name="icon - heart off" transform="translate(22.698 21.018)">
          <path id="Icon_feather-heart" data-name="Icon feather-heart" d="M12.6,5.356a2.931,2.931,0,0,0-4.146,0l-.565.565-.565-.565A2.932,2.932,0,1,0,3.182,9.5l.565.565,4.146,4.146,4.146-4.146L12.6,9.5a2.931,2.931,0,0,0,0-4.146Z" transform="translate(-2.323 -4.497)" fill="#fff"/>
        </g>
      </g>
    </g>
  </g>
</svg>
